<svg id="Capa_1" data-name="Capa 1" xmlns="http://www.w3.org/2000/svg" viewBox="0 0 256 256"><defs><style>.cls-1{fill:none;stroke:#000;stroke-miterlimit:10;}.cls-2{fill:#fdfdfd;}</style></defs><path class="cls-1" d="M5.88,66.94H.74C.74,146,57.72,210.08,128,210.08S255.26,146,255.26,66.94h-21"/><path class="cls-1" d="M234.24,66.94H250c0,75.79-54.63,137.23-122,137.23S6,142.73,6,66.94H21.76"/><path class="cls-1" d="M29.61,64.47H21.74C21.74,130.48,69.31,184,128,184S234.26,130.48,234.26,64.47h-7.91"/><path class="cls-1" d="M226.39,61.15c0,61.12-44,110.67-98.39,110.67S29.61,122.27,29.61,61.15Z"/><ellipse cx="73.02" cy="71.77" rx="19.88" ry="24.26"/><ellipse class="cls-2" cx="67.12" cy="66.38" rx="7.75" ry="9.46"/><ellipse class="cls-2" cx="80.31" cy="80.59" rx="4.55" ry="5.55"/><ellipse cx="182.98" cy="70.18" rx="19.88" ry="24.26"/><ellipse class="cls-2" cx="177.08" cy="64.8" rx="7.75" ry="9.46"/><ellipse class="cls-2" cx="190.28" cy="79.01" rx="4.55" ry="5.55"/><path class="cls-1" d="M177,109.82c0,28.56-21.93,51.7-49,51.7s-49-23.14-49-51.7Z"/><path class="cls-1" d="M172.91,130.51A54,54,0,0,0,177,109.82H79a54,54,0,0,0,4.08,20.69Z"/><path class="cls-1" d="M100.79,152.82a46.9,46.9,0,0,0,54.42,0c-5.35-7.39-15.53-12.38-27.21-12.38S106.14,145.43,100.79,152.82Z"/></svg>